<mxfile host="app.diagrams.net" modified="2023-02-24T23:33:33.364Z" agent="5.0 (Windows NT 10.0; Win64; x64) AppleWebKit/537.36 (KHTML, like Gecko) Chrome/110.0.0.0 Safari/537.36" etag="I0lRCmMS0k7S06m4q5vZ" version="20.8.23" type="github">
  <diagram name="Page-1" id="w7ukTtNgSzVgdRXU3wD-">
    <mxGraphModel dx="760" dy="199" grid="0" gridSize="10" guides="1" tooltips="1" connect="1" arrows="1" fold="1" page="0" pageScale="1" pageWidth="850" pageHeight="1100" background="#67AB9F" math="0" shadow="0">
      <root>
        <mxCell id="0" />
        <mxCell id="1" parent="0" />
        <mxCell id="wxkwnVDjkmYRIN4v_zQX-35" value="" style="ellipse;whiteSpace=wrap;html=1;rounded=1;shadow=0;glass=0;sketch=0;strokeWidth=0;fontFamily=Helvetica;" parent="1" vertex="1">
          <mxGeometry x="474" y="118" width="120" height="80" as="geometry" />
        </mxCell>
        <mxCell id="wxkwnVDjkmYRIN4v_zQX-36" value="&lt;p style=&quot;line-height: 0%;&quot;&gt;&lt;font style=&quot;font-size: 12px;&quot;&gt;Input&lt;br&gt;&lt;br style=&quot;&quot;&gt;&lt;/font&gt;&lt;br style=&quot;font-size: 10px;&quot;&gt;&lt;/p&gt;&lt;div style=&quot;text-align: justify;&quot;&gt;&lt;/div&gt;&lt;div style=&quot;&quot;&gt;&lt;/div&gt;&lt;p&gt;&lt;/p&gt;" style="whiteSpace=wrap;html=1;aspect=fixed;rounded=1;shadow=0;glass=0;strokeWidth=0;fontFamily=Helvetica;perimeterSpacing=0;imageWidth=27;imageHeight=30;fillColor=#008a00;fontColor=#ffffff;strokeColor=#005700;align=center;verticalAlign=top;" parent="1" vertex="1">
          <mxGeometry x="-103" y="118" width="80" height="80" as="geometry" />
        </mxCell>
        <mxCell id="wxkwnVDjkmYRIN4v_zQX-41" value="Output" style="whiteSpace=wrap;html=1;aspect=fixed;rounded=1;shadow=0;glass=0;sketch=0;strokeWidth=0;fontFamily=Helvetica;fillColor=#a0522d;fontColor=#ffffff;strokeColor=#6D1F00;verticalAlign=top;" parent="1" vertex="1">
          <mxGeometry x="146" y="118" width="80" height="80" as="geometry" />
        </mxCell>
        <mxCell id="wxkwnVDjkmYRIN4v_zQX-43" value="&lt;font style=&quot;font-size: 12px;&quot;&gt;Process&lt;/font&gt;" style="whiteSpace=wrap;html=1;aspect=fixed;rounded=1;shadow=0;glass=0;labelBackgroundColor=#76608a;sketch=0;strokeWidth=0;fontFamily=Helvetica;fontSize=13;fontColor=#ffffff;fillColor=#76608a;strokeColor=#432D57;verticalAlign=top;" parent="1" vertex="1">
          <mxGeometry x="21" y="118" width="80" height="80" as="geometry" />
        </mxCell>
        <mxCell id="wxkwnVDjkmYRIN4v_zQX-44" value="Text" style="text;html=1;strokeColor=none;fillColor=none;align=center;verticalAlign=top;whiteSpace=wrap;rounded=0;fontSize=11;fontFamily=Helvetica;fontColor=#76608a;" parent="1" vertex="1">
          <mxGeometry x="36" y="137" width="60" height="30" as="geometry" />
        </mxCell>
        <mxCell id="wxkwnVDjkmYRIN4v_zQX-45" value="Text" style="text;html=1;strokeColor=none;fillColor=none;align=center;verticalAlign=top;whiteSpace=wrap;rounded=0;fontSize=11;fontFamily=Helvetica;fontColor=#76608a;" parent="1" vertex="1">
          <mxGeometry x="36" y="137" width="60" height="30" as="geometry" />
        </mxCell>
        <mxCell id="wxkwnVDjkmYRIN4v_zQX-46" value="Text" style="text;html=1;strokeColor=none;fillColor=none;align=center;verticalAlign=bottom;whiteSpace=wrap;rounded=0;fontSize=11;fontFamily=Helvetica;fontColor=#76608a;labelPosition=center;verticalLabelPosition=top;" parent="1" vertex="1">
          <mxGeometry x="36" y="137" width="60" height="30" as="geometry" />
        </mxCell>
        <mxCell id="wxkwnVDjkmYRIN4v_zQX-47" value="Text" style="text;html=1;strokeColor=none;fillColor=none;align=center;verticalAlign=top;whiteSpace=wrap;rounded=0;fontSize=11;fontFamily=Helvetica;fontColor=#76608a;" parent="1" vertex="1">
          <mxGeometry x="36" y="137" width="60" height="30" as="geometry" />
        </mxCell>
        <mxCell id="wxkwnVDjkmYRIN4v_zQX-48" value="&lt;font style=&quot;font-size: 9px;&quot; color=&quot;#000000&quot;&gt;price&lt;/font&gt;" style="text;html=1;strokeColor=none;fillColor=none;align=center;verticalAlign=middle;whiteSpace=wrap;rounded=0;fontSize=12;fontFamily=Georgia;fontColor=#76608a;" parent="1" vertex="1">
          <mxGeometry x="-96" y="154" width="60" height="30" as="geometry" />
        </mxCell>
        <mxCell id="wxkwnVDjkmYRIN4v_zQX-49" value="price * 1.05" style="text;html=1;strokeColor=none;fillColor=none;align=center;verticalAlign=middle;whiteSpace=wrap;rounded=0;fontSize=9;fontFamily=Georgia;fontColor=#000000;" parent="1" vertex="1">
          <mxGeometry x="31" y="152" width="60" height="30" as="geometry" />
        </mxCell>
        <mxCell id="wxkwnVDjkmYRIN4v_zQX-50" value="total amount" style="text;html=1;strokeColor=none;fillColor=none;align=center;verticalAlign=middle;whiteSpace=wrap;rounded=0;fontSize=9;fontFamily=Georgia;fontColor=#000000;" parent="1" vertex="1">
          <mxGeometry x="154" y="152" width="60" height="30" as="geometry" />
        </mxCell>
      </root>
    </mxGraphModel>
  </diagram>
</mxfile>
